<?xml version="1.0" standalone="no"?>
<!DOCTYPE svg PUBLIC "-//W3C//DTD SVG 20010904//EN"
 "http://www.w3.org/TR/2001/REC-SVG-20010904/DTD/svg10.dtd">
<svg version="1.0" xmlns="http://www.w3.org/2000/svg"
 width="512.000000pt" height="512.000000pt" viewBox="0 0 512.000000 512.000000"
 preserveAspectRatio="xMidYMid meet">
<metadata>
Created by potrace 1.14, written by Peter Selinger 2001-2017
</metadata>
<g transform="translate(0.000000,512.000000) scale(0.100000,-0.100000)"
fill="#000000" stroke="none">
<path d="M2360 4384 c-14 -2 -59 -9 -100 -15 -120 -18 -307 -76 -415 -129
-219 -107 -363 -223 -541 -436 -221 -265 -305 -457 -370 -844 -29 -172 -34
-227 -33 -343 2 -117 -1 -140 -15 -156 -13 -14 -14 -21 -5 -27 7 -4 10 -3 5 4
-3 6 -2 13 4 17 13 8 13 -21 0 -45 -7 -14 -6 -23 5 -34 11 -11 12 -16 2 -19
-9 -4 -9 -6 1 -6 6 -1 12 -6 12 -11 0 -7 -7 -7 -23 0 -21 11 -21 10 -3 -4 23
-18 29 -45 15 -62 -7 -8 -6 -14 1 -19 6 -3 7 -11 4 -17 -5 -8 -1 -9 12 -4 10
4 15 4 11 0 -4 -4 -1 -14 6 -22 10 -13 9 -14 -2 -8 -9 6 -12 5 -9 -5 3 -8 11
-13 18 -11 10 2 10 -1 4 -10 -6 -7 -10 -22 -10 -33 1 -11 -3 -23 -9 -27 -6 -5
-3 -8 7 -8 15 0 16 -4 8 -26 -8 -20 -7 -25 2 -21 7 2 12 10 10 16 -1 7 2 10 8
6 6 -3 7 -12 3 -18 -4 -7 -8 -15 -8 -19 0 -3 -4 -10 -9 -15 -5 -5 -6 -2 -1 6
5 10 4 12 -4 7 -6 -4 -9 -12 -5 -17 3 -5 9 -7 14 -4 4 3 7 -15 5 -40 -1 -24 1
-42 6 -40 4 3 10 1 14 -5 3 -5 11 -10 16 -10 6 0 7 5 3 12 -4 7 -3 8 5 4 9 -6
9 -11 1 -21 -7 -8 -9 -24 -5 -36 4 -12 2 -24 -4 -28 -6 -4 -2 -12 10 -20 12
-7 18 -8 14 -2 -3 6 -1 11 5 11 6 0 10 -8 8 -17 -2 -10 2 -17 9 -16 6 1 10 -5
8 -15 -3 -20 14 -44 25 -37 5 3 11 1 14 -4 7 -10 -13 -9 -31 2 -6 4 -14 3 -18
-3 -3 -5 -1 -10 5 -10 6 0 8 -4 5 -10 -3 -5 0 -7 7 -5 9 4 14 -2 14 -15 0 -11
-5 -20 -11 -20 -6 0 -7 -3 0 -8 6 -4 16 -15 24 -24 11 -15 11 -21 0 -35 -12
-15 -12 -16 1 -8 25 16 50 16 50 0 0 -9 -6 -12 -17 -8 -12 4 -9 -1 7 -15 14
-12 21 -21 17 -22 -5 0 3 -14 17 -31 14 -17 23 -36 20 -41 -5 -7 -2 -8 6 -3
10 6 12 4 7 -8 -3 -8 1 -21 9 -28 8 -7 13 -18 10 -26 -3 -7 0 -13 5 -13 6 0 9
9 6 20 -6 22 8 37 18 20 4 -6 11 -8 16 -5 5 3 6 -1 2 -10 -5 -13 -7 -14 -14
-3 -7 10 -9 9 -9 -3 0 -16 26 -34 42 -31 4 1 4 -6 1 -15 -5 -13 -2 -15 11 -10
10 4 15 3 11 -4 -4 -5 -16 -7 -28 -4 -17 5 -19 4 -7 -4 11 -8 12 -11 2 -11 -7
0 -10 -5 -6 -11 4 -8 9 -7 15 2 7 11 11 10 23 -6 9 -11 16 -25 16 -31 0 -16
28 -26 35 -13 4 5 3 8 -2 7 -4 -2 -9 1 -10 5 -1 5 -10 15 -20 23 -17 13 -17
14 2 7 11 -4 25 -14 32 -22 6 -9 16 -17 22 -17 6 -1 19 -2 29 -3 15 -2 14 -3
-3 -10 -11 -5 -25 -4 -32 1 -9 7 -13 7 -13 0 0 -5 7 -13 16 -16 15 -6 15 -9
-2 -29 -19 -21 -19 -21 1 -7 11 8 24 21 28 28 15 23 23 12 20 -28 l-2 -41 19
23 c11 13 19 17 20 10 0 -7 4 -10 10 -7 6 3 7 -1 4 -10 -5 -11 -2 -14 11 -9
15 6 16 4 6 -17 -11 -22 -11 -22 13 3 14 16 27 24 30 19 3 -5 -1 -11 -9 -15
-8 -3 -12 -12 -9 -21 8 -21 28 -19 20 3 -6 16 -5 16 8 -1 10 -13 15 -15 19 -5
3 7 4 3 4 -9 -1 -12 -5 -19 -11 -16 -5 4 -6 1 -2 -6 5 -7 15 -10 23 -7 11 5
13 2 9 -9 -3 -9 -2 -13 4 -10 6 3 10 1 10 -4 0 -6 4 -11 8 -11 5 0 9 7 9 15 0
8 -4 15 -9 15 -4 0 -8 5 -8 11 0 8 4 9 13 0 8 -6 18 -7 23 -3 4 4 3 0 -4 -9
-10 -13 -9 -19 6 -32 22 -20 33 -22 43 -5 6 9 9 10 9 1 0 -7 7 -10 18 -7 14 5
15 4 2 -5 -8 -6 -13 -11 -10 -12 3 0 13 -2 23 -4 9 -2 17 2 17 8 0 8 3 7 9 -2
5 -7 22 -14 39 -14 22 -1 30 -6 29 -19 -2 -23 -17 -24 -17 -2 0 14 -2 15 -17
3 -13 -11 -15 -11 -9 -1 6 10 3 13 -10 11 -11 -2 -24 -1 -29 3 -6 4 -17 -3
-24 -15 -11 -18 -11 -20 0 -9 17 16 29 15 29 -3 0 -8 4 -15 10 -15 5 0 7 7 4
14 -10 27 45 -7 56 -34 9 -23 10 -23 6 -2 -3 17 0 22 12 20 9 -1 24 2 32 7 13
8 13 7 1 -8 -7 -9 -16 -15 -20 -13 -4 3 -7 -4 -7 -15 0 -16 5 -14 28 12 15 17
28 26 28 20 0 -5 -7 -16 -15 -24 -13 -13 -12 -17 8 -30 12 -8 32 -12 45 -11
14 3 21 0 17 -6 -7 -11 8 -14 19 -3 4 4 -3 15 -15 23 -16 13 -17 17 -5 17 8 0
18 -7 20 -14 4 -8 11 -11 18 -7 7 4 4 -2 -6 -14 -20 -23 -9 -31 13 -9 9 8 12
8 7 0 -3 -6 -3 -13 1 -16 5 -2 2 -2 -4 -1 -7 2 -13 -1 -13 -7 0 -6 -4 -8 -9
-5 -5 3 -12 -1 -15 -10 -3 -9 -2 -12 5 -9 5 4 18 1 27 -7 15 -12 16 -11 3 5
-7 9 -9 17 -4 17 14 0 58 -53 55 -66 -1 -6 6 -17 15 -25 15 -11 16 -11 6 1 -7
8 -13 19 -13 25 1 5 9 0 19 -12 10 -12 21 -19 25 -16 3 4 6 -1 6 -10 0 -19 15
-23 25 -7 3 5 -5 15 -19 21 -14 7 -23 16 -19 22 4 6 1 7 -7 2 -9 -6 -11 -4 -5
5 5 9 4 11 -3 6 -8 -5 -10 -1 -5 10 5 13 3 16 -9 11 -9 -3 -23 2 -34 14 -9 10
-12 19 -7 19 6 0 14 -7 17 -15 5 -13 10 -14 28 -4 13 6 20 8 16 4 -8 -9 22
-65 35 -65 4 0 6 4 3 8 -2 4 6 8 20 8 13 0 24 -4 24 -9 0 -5 -7 -7 -15 -4 -8
4 -17 2 -20 -3 -6 -10 3 -13 36 -13 9 0 16 -6 16 -13 0 -9 -4 -11 -12 -4 -8 7
-18 3 -31 -13 l-19 -22 21 18 c22 18 34 13 47 -23 4 -12 6 -11 6 3 1 10 6 15
11 12 6 -4 8 -10 6 -14 -3 -4 4 -7 14 -8 11 -1 22 2 25 8 3 5 -1 6 -10 3 -10
-4 -15 -2 -13 7 2 9 -5 14 -18 13 -17 -1 -20 3 -16 19 5 20 6 20 12 2 5 -13 9
-15 14 -7 4 7 12 10 17 6 5 -3 7 -10 4 -15 -11 -17 24 -9 35 8 13 20 13 20 -6
-34 -5 -15 -4 -16 5 -3 9 13 11 13 12 0 1 -8 1 -18 0 -22 -2 -17 18 -7 24 11
4 13 12 18 21 14 9 -3 12 -9 7 -12 -4 -3 -9 -13 -11 -21 -2 -12 1 -11 11 2 11
14 16 15 27 5 12 -10 12 -9 2 4 -10 14 -10 18 2 22 9 4 18 1 22 -5 4 -7 3 -8
-4 -4 -8 5 -10 1 -5 -9 8 -23 24 3 18 30 -3 11 -2 14 1 7 4 -8 10 -9 17 -4 8
6 18 2 30 -10 9 -10 13 -18 7 -18 -17 0 -25 5 -23 12 2 5 -2 8 -7 8 -12 0 -13
-10 -1 -28 12 -19 34 -11 48 18 9 18 12 20 13 8 0 -10 5 -18 11 -18 5 0 8 -4
4 -9 -3 -5 -1 -12 4 -15 5 -4 8 8 6 26 -2 18 -1 25 1 16 6 -19 34 -25 34 -8 0
6 -5 10 -12 10 -6 0 -9 3 -6 6 4 3 15 1 27 -5 13 -7 22 -8 26 -1 3 5 12 10 18
10 13 -1 -23 -24 -37 -25 -5 0 -11 -5 -13 -12 -3 -7 4 -11 16 -10 11 0 17 5
15 9 -3 4 12 6 32 3 35 -4 36 -3 18 11 -18 15 -18 15 9 9 29 -6 39 11 10 18
-24 6 52 9 105 5 6 -1 12 -5 12 -10 0 -5 5 -6 10 -3 6 3 10 0 10 -7 0 -10 2
-10 9 1 5 8 7 20 4 28 -7 19 7 16 23 -4 12 -16 15 -16 27 -3 15 18 37 24 38
10 1 -6 2 -14 3 -19 0 -5 4 -13 8 -16 4 -4 5 5 2 20 -4 25 -3 27 11 15 16 -14
31 -8 21 8 -3 5 -19 8 -35 7 -16 -1 -35 2 -43 7 -10 8 -9 9 5 4 10 -3 17 0 17
7 0 8 3 8 8 2 8 -12 22 -13 40 -2 16 10 34 -1 26 -15 -5 -7 -2 -9 8 -5 9 3 20
1 26 -5 6 -6 12 -6 17 3 5 7 4 10 -2 6 -6 -4 -16 -1 -22 6 -8 11 -6 13 10 12
11 -1 24 -7 28 -14 6 -10 10 -9 14 3 4 10 13 13 24 10 10 -3 14 -2 8 3 -12 10
-16 45 -4 37 5 -3 9 0 9 5 0 6 5 11 11 11 5 0 7 -4 4 -10 -9 -15 21 -12 34 3
8 10 7 17 -2 28 -6 7 1 3 17 -11 l28 -25 -6 25 c-4 14 -4 21 1 15 12 -15 100
-13 100 2 0 14 -19 13 -29 -2 -12 -15 -10 7 2 25 8 12 10 12 10 1 0 -8 3 -11
7 -8 3 4 17 0 30 -8 21 -14 25 -14 39 0 8 8 11 15 5 15 -6 0 -11 4 -11 10 0 5
7 7 15 4 11 -5 14 -1 9 12 -5 15 -4 16 4 4 6 -8 9 -17 6 -21 -2 -4 1 -11 7
-15 7 -4 9 -3 6 3 -8 12 12 22 31 16 6 -3 9 -10 6 -15 -4 -7 -2 -8 4 -4 9 5 9
13 2 26 -7 13 -7 21 0 25 8 5 7 12 -2 23 -10 14 -8 13 8 -1 19 -16 22 -16 27
-2 4 8 13 15 20 15 19 0 49 -35 40 -45 -5 -4 -2 -5 5 -1 7 5 11 10 8 13 -12
12 15 42 33 38 15 -3 18 1 14 12 -5 12 -3 14 7 8 9 -6 11 -4 5 5 -6 10 -11 9
-21 -4 -9 -13 -13 -14 -17 -4 -4 9 -6 9 -6 1 -1 -7 -11 -17 -22 -24 -15 -8
-19 -8 -15 0 4 6 2 11 -3 11 -6 0 -11 4 -11 8 0 5 7 9 15 9 8 0 12 -4 9 -9 -3
-4 -1 -8 5 -8 5 0 13 10 16 21 6 17 9 19 16 8 8 -13 10 -12 13 10 0 5 4 12 8
15 5 3 6 3 3 -1 -3 -3 4 -12 14 -20 17 -11 23 -9 51 17 27 26 35 28 49 18 14
-11 14 -11 4 3 -7 9 -9 20 -5 24 4 5 -8 -2 -25 -14 -18 -12 -33 -17 -33 -11 0
6 -3 9 -7 7 -5 -3 -8 5 -8 18 0 13 3 21 8 18 4 -2 7 -11 7 -19 0 -8 5 -14 11
-14 5 0 8 4 5 8 -3 5 0 9 7 9 7 0 17 2 22 3 19 5 36 0 31 -8 -3 -5 1 -9 8 -9
14 0 16 14 3 33 -5 8 5 11 32 10 22 -1 37 2 34 7 -3 5 -16 6 -30 2 -17 -4 -23
-2 -18 6 6 8 2 8 -14 -1 -12 -6 -18 -16 -15 -22 4 -7 3 -8 -4 -4 -7 4 -12 11
-12 15 0 13 46 30 72 27 20 -2 24 1 20 16 -3 14 0 17 14 12 16 -5 16 -4 4 5
-13 9 -13 11 0 12 8 1 18 1 21 1 3 -1 6 4 7 11 3 33 11 52 22 49 6 -1 9 2 5 8
-3 5 -1 10 5 10 7 0 8 6 0 19 -13 25 -13 41 1 41 5 0 7 -4 4 -10 -3 -5 -1 -10
5 -10 6 0 8 -6 5 -12 -4 -7 0 -5 9 5 18 23 11 48 -12 40 -18 -7 -17 -5 12 17
11 8 17 10 13 4 -4 -7 0 -18 9 -25 13 -10 17 -10 24 1 5 8 6 18 3 23 -3 5 5 6
18 2 l24 -8 -25 21 c-21 18 -23 23 -10 32 24 15 40 12 33 -7 -4 -11 -8 -13
-11 -5 -2 7 -8 9 -14 6 -14 -9 11 -24 29 -17 7 3 10 9 7 14 -3 5 3 9 13 9 11
0 14 3 7 8 -6 4 -13 15 -17 24 -4 12 -2 15 9 11 7 -3 14 -9 14 -14 0 -5 5 -9
10 -9 7 0 7 7 0 21 -16 28 1 41 55 40 14 0 16 2 6 8 -9 6 -10 11 -2 15 8 5 8
13 1 26 -16 30 -12 34 9 9 15 -18 19 -20 17 -7 -1 9 -11 27 -22 40 -13 15 -14
18 -2 10 19 -15 30 -3 33 37 0 14 6 27 13 27 7 1 18 2 26 3 10 1 14 13 12 40
-1 30 2 37 12 29 9 -8 12 -6 12 6 0 19 11 21 29 4 8 -7 6 -1 -3 13 -9 14 -13
29 -9 33 4 4 1 12 -7 17 -12 9 -11 10 5 6 11 -2 27 3 34 11 12 12 11 13 -9 7
-15 -5 -20 -4 -16 3 4 6 -2 16 -11 22 -17 11 -17 11 0 6 9 -3 17 -2 17 2 0 5
10 13 23 18 12 6 17 9 11 8 -6 -1 -17 2 -25 7 -12 7 -12 9 0 9 11 0 11 3 0 18
-13 15 -12 16 3 4 11 -9 18 -10 23 -2 3 6 10 8 15 5 10 -6 25 13 17 21 -3 3
-14 1 -24 -4 -15 -8 -19 -7 -19 7 0 10 6 18 13 18 7 0 10 -4 7 -9 -3 -4 2 -5
12 -1 14 5 14 7 -4 17 -17 9 -18 13 -6 24 18 16 29 16 15 -1 -8 -10 -7 -14 3
-14 9 0 12 11 10 34 -2 23 1 31 8 27 6 -4 8 -3 4 4 -3 5 -3 12 1 15 5 2 2 2
-4 1 -7 -2 -13 1 -13 6 0 5 -6 8 -12 6 -7 -1 -10 -1 -5 1 4 3 4 10 0 16 -4 8
-1 8 9 -1 21 -17 42 6 26 28 -8 12 -9 12 -4 -2 3 -10 1 -20 -4 -23 -5 -3 -10
5 -12 17 -2 14 -9 22 -18 20 -8 -2 -11 0 -7 5 5 4 14 8 20 8 7 0 13 6 13 13 1
6 2 17 3 23 0 5 5 8 9 5 5 -3 6 9 4 26 -3 18 -1 28 5 25 5 -3 15 -1 23 5 13 8
12 9 -2 5 -22 -7 -30 3 -16 20 8 10 8 17 0 25 -12 12 -4 41 9 32 5 -3 6 2 3
10 -3 9 -10 16 -16 16 -5 0 -7 -4 -4 -8 2 -4 1 -14 -4 -22 -5 -9 -5 -19 2 -27
7 -9 7 -17 0 -26 -6 -6 -10 -16 -10 -22 0 -5 -6 -11 -14 -13 -9 -2 -8 0 2 7 8
6 11 11 6 11 -5 0 -3 7 4 15 10 12 10 19 2 27 -8 8 -8 17 -1 30 7 13 6 18 -3
18 -6 0 -3 6 8 14 15 11 22 12 34 3 13 -10 13 -10 2 5 -10 12 -11 22 -3 37 13
23 2 34 -19 20 -25 -15 -29 -10 -18 29 18 63 3 328 -27 479 -40 207 -132 457
-224 616 -100 171 -275 361 -441 479 -211 151 -508 273 -686 284 -43 2 -80 8
-83 13 -15 22 -334 40 -441 25z m373 -21 c-7 -2 -19 -2 -25 0 -7 3 -2 5 12 5
14 0 19 -2 13 -5z m1561 -1918 c-4 -8 -10 -15 -16 -15 -5 0 -6 -4 -3 -10 3 -6
-1 -7 -9 -4 -13 5 -12 9 7 25 27 23 28 23 21 4z m-3382 -42 c-6 -2 -9 -10 -6
-15 4 -7 2 -8 -5 -4 -13 9 -5 26 12 25 9 0 8 -2 -1 -6z m3338 -37 c0 -3 -4 -8
-10 -11 -5 -3 -10 -1 -10 4 0 6 5 11 10 11 6 0 10 -2 10 -4z m0 -46 c0 -5 -2
-10 -4 -10 -3 0 -8 5 -11 10 -3 6 -1 10 4 10 6 0 11 -4 11 -10z m-3330 -60 c0
-5 -2 -10 -4 -10 -3 0 -8 5 -11 10 -3 6 -1 10 4 10 6 0 11 -4 11 -10z m3321
-43 c-10 -9 -11 -8 -5 6 3 10 9 15 12 12 3 -3 0 -11 -7 -18z m5 -137 c0 -10
-2 -17 -5 -15 -2 3 -10 0 -17 -6 -8 -7 -14 -6 -20 2 -4 7 -3 9 4 5 6 -3 16 3
22 14 13 25 16 25 16 0z m-3260 -117 c-10 -11 -19 -7 -22 10 -2 15 0 16 12 6
8 -6 12 -14 10 -16z m3169 -163 c-3 -5 -10 -10 -16 -10 -5 0 -9 5 -9 10 0 6 7
10 16 10 8 0 12 -4 9 -10z m-35 -65 c0 -5 -5 -3 -10 5 -5 8 -10 20 -10 25 0 6
5 3 10 -5 5 -8 10 -19 10 -25z m-3035 -15 c-3 -5 0 -10 7 -10 9 0 9 -3 -2 -10
-11 -7 -11 -10 -2 -10 8 0 10 -5 6 -12 -5 -7 -2 -9 8 -5 12 4 14 1 11 -14 -5
-19 -7 -19 -23 6 -15 23 -18 40 -11 63 1 1 4 2 7 2 3 0 2 -4 -1 -10z m3020 0
c3 -5 1 -10 -4 -10 -6 0 -11 5 -11 10 0 6 2 10 4 10 3 0 8 -4 11 -10z m-2935
-79 c0 -6 -4 -12 -8 -15 -5 -3 -9 1 -9 9 0 8 4 15 9 15 4 0 8 -4 8 -9z m-20
-43 c0 -10 3 -9 9 1 6 9 9 5 9 -14 0 -15 8 -32 19 -40 19 -14 32 -82 13 -70
-6 3 -8 11 -4 16 3 5 0 16 -6 24 -7 8 -9 15 -5 15 4 0 -4 10 -19 21 -15 12
-25 24 -22 27 3 3 1 11 -5 19 -9 9 -8 13 0 13 6 0 11 -6 11 -12z m2879 -44
c-8 -10 -16 -11 -30 -3 -22 11 -26 21 -5 13 8 -3 17 0 21 5 3 6 11 9 16 5 6
-4 6 -11 -2 -20z m-149 -110 c0 -8 -19 -13 -24 -6 -3 5 1 9 9 9 8 0 15 -2 15
-3z m6 -39 c-4 -24 -16 -30 -16 -7 0 12 4 22 9 22 5 0 8 -7 7 -15z m-76 -85
c0 -4 -7 -13 -15 -20 -8 -7 -12 -16 -9 -21 3 -5 -7 -20 -22 -34 -25 -23 -28
-24 -40 -8 -15 21 3 38 22 22 8 -7 14 -6 19 1 3 5 1 10 -5 10 -7 0 -10 6 -7
13 2 6 10 12 18 12 8 0 14 10 13 22 0 13 4 19 13 16 7 -3 13 -9 13 -13z
m-2360 -45 c0 -8 -2 -15 -4 -15 -2 0 -6 7 -10 15 -3 8 -1 15 4 15 6 0 10 -7
10 -15z m-23 -27 c-3 -8 -6 -5 -6 6 -1 11 2 17 5 13 3 -3 4 -12 1 -19z m73 -8
c0 -5 -5 -10 -11 -10 -5 0 -7 5 -4 10 3 6 8 10 11 10 2 0 4 -4 4 -10z m2224
-42 c-9 -14 -23 2 -17 18 4 12 8 13 14 3 4 -7 5 -17 3 -21z m-2064 -80 c0 -4
-4 -8 -9 -8 -6 0 -12 4 -15 8 -3 5 1 9 9 9 8 0 15 -4 15 -9z m1923 -31 c7 4 5
-1 -3 -11 -13 -17 -14 -17 -21 1 -11 27 -10 40 2 20 6 -10 15 -14 22 -10z
m-1748 -47 c3 -5 1 -10 -4 -10 -6 0 -11 5 -11 10 0 6 2 10 4 10 3 0 8 -4 11
-10z m59 -47 c-4 -19 -3 -24 4 -15 8 11 10 11 15 -1 6 -16 -9 -17 -30 -4 -10
6 -10 12 0 27 16 27 18 25 11 -7z m1472 -12 c0 -19 -19 -22 -33 -6 -4 4 -3 5
3 2 7 -4 14 0 18 8 7 20 12 19 12 -4z m-116 -17 c0 -8 -19 -13 -24 -6 -3 5 1
9 9 9 8 0 15 -2 15 -3z m25 -14 c-3 -5 -1 -10 5 -10 6 0 8 -4 5 -10 -4 -6 -11
-5 -19 3 -10 9 -11 14 -2 19 15 10 18 10 11 -2z m-271 -91 c4 6 12 9 17 5 6
-4 6 -11 -2 -20 -6 -7 -16 -11 -23 -7 -6 4 -20 9 -30 10 -11 2 -22 6 -25 10
-3 3 4 3 17 0 13 -3 22 -1 22 6 0 8 4 7 9 -2 6 -9 11 -10 15 -2z m-758 -39 c0
-12 -4 -16 -9 -11 -5 5 -6 14 -3 20 10 15 12 14 12 -9z m523 -17 c9 -18 9 -22
-2 -18 -7 3 -13 15 -14 26 -2 24 0 23 16 -8z m-448 -18 c5 4 9 0 9 -7 0 -9 3
-9 10 2 5 8 10 10 10 4 0 -18 -12 -24 -31 -14 -13 8 -20 6 -28 -7 -6 -10 -11
-12 -11 -5 0 22 2 27 11 25 5 -2 10 5 10 15 1 16 2 16 6 -1 2 -9 9 -15 14 -12z
m219 19 c0 -8 -19 -13 -24 -6 -3 5 1 9 9 9 8 0 15 -2 15 -3z m200 -4 c0 -5 -7
-7 -15 -4 -8 4 -15 8 -15 10 0 2 7 4 15 4 8 0 15 -4 15 -10z m90 0 c0 -5 -4
-10 -10 -10 -5 0 -10 5 -10 10 0 6 5 10 10 10 6 0 10 -4 10 -10z m-380 -20 c0
-5 -2 -10 -4 -10 -3 0 -8 5 -11 10 -3 6 -1 10 4 10 6 0 11 -4 11 -10z"/>
<path d="M3730 1250 c0 -5 5 -10 11 -10 5 0 7 5 4 10 -3 6 -8 10 -11 10 -2 0
-4 -4 -4 -10z"/>
<path d="M4335 2549 c-4 -6 -5 -12 -2 -15 2 -3 7 2 10 11 7 17 1 20 -8 4z"/>
<path d="M4299 2548 c-6 -21 -5 -37 2 -32 5 3 9 0 9 -7 0 -7 3 -9 6 -6 4 4 2
13 -4 20 -7 8 -9 17 -5 20 3 4 3 7 0 7 -4 0 -7 -1 -8 -2z"/>
<path d="M4275 2202 c3 -3 -3 -11 -13 -19 -15 -13 -15 -13 5 -3 28 13 37 27
18 27 -8 0 -13 -3 -10 -5z"/>
<path d="M907 2179 c7 -7 15 -10 18 -7 3 3 -2 9 -12 12 -14 6 -15 5 -6 -5z"/>
<path d="M4205 1940 c-3 -6 1 -7 9 -4 18 7 21 14 7 14 -6 0 -13 -4 -16 -10z"/>
<path d="M960 1920 c0 -5 5 -10 11 -10 5 0 7 5 4 10 -3 6 -8 10 -11 10 -2 0
-4 -4 -4 -10z"/>
<path d="M4220 1906 c0 -2 8 -10 18 -17 15 -13 16 -12 3 4 -13 16 -21 21 -21
13z"/>
<path d="M4186 1892 c-3 -5 1 -9 9 -9 8 0 15 4 15 9 0 4 -4 8 -9 8 -6 0 -12
-4 -15 -8z"/>
<path d="M975 1880 c-3 -5 -1 -10 4 -10 6 0 11 5 11 10 0 6 -2 10 -4 10 -3 0
-8 -4 -11 -10z"/>
<path d="M1001 1808 c13 -29 38 -46 35 -22 -1 8 -5 13 -9 12 -3 -2 -13 6 -22
17 -14 19 -15 19 -4 -7z"/>
<path d="M4084 1674 c1 -7 5 -16 9 -20 3 -4 -4 -15 -16 -26 l-22 -19 26 16
c20 12 25 21 21 38 -5 20 -4 21 14 7 15 -11 16 -11 7 0 -17 19 -41 21 -39 4z"/>
<path d="M4080 1599 c0 -5 5 -7 10 -4 6 3 10 8 10 11 0 2 -4 4 -10 4 -5 0 -10
-5 -10 -11z"/>
<path d="M1134 1536 c1 -8 5 -18 8 -22 4 -3 5 1 4 10 -1 8 -5 18 -8 22 -4 3
-5 -1 -4 -10z"/>
<path d="M3987 1503 c3 -7 6 -13 8 -13 1 0 7 6 13 13 8 10 6 13 -7 13 -11 0
-17 -6 -14 -13z"/>
<path d="M1220 1411 c0 -6 4 -13 10 -16 6 -3 7 1 4 9 -7 18 -14 21 -14 7z"/>
<path d="M1433 1207 c0 -8 6 -14 13 -14 7 0 10 6 7 14 -3 7 -8 13 -12 13 -4 0
-8 -6 -8 -13z"/>
<path d="M1517 1155 c-8 -8 -17 -12 -21 -10 -3 3 -3 2 0 -2 3 -4 13 -8 22 -8
9 0 16 -6 14 -13 -1 -8 2 -11 8 -7 8 5 8 11 0 20 -7 8 -9 19 -5 25 9 15 -1 12
-18 -5z"/>
<path d="M1558 1103 c7 -3 16 -2 19 1 4 3 -2 6 -13 5 -11 0 -14 -3 -6 -6z"/>
<path d="M1600 1100 c-8 -5 -12 -11 -9 -14 2 -3 11 -1 19 4 8 5 12 11 9 14 -2
3 -11 1 -19 -4z"/>
<path d="M1630 1078 c0 -4 7 -8 15 -8 8 0 15 4 15 8 0 5 -7 9 -15 9 -8 0 -15
-4 -15 -9z"/>
<path d="M1670 1080 c0 -5 5 -10 11 -10 5 0 7 -5 3 -12 -4 -7 -3 -8 5 -4 9 6
9 11 0 22 -14 17 -19 18 -19 4z"/>
<path d="M3620 1080 c-9 -6 -10 -10 -3 -10 6 0 15 5 18 10 8 12 4 12 -15 0z"/>
<path d="M1649 1043 c-13 -16 -12 -17 4 -4 16 13 21 21 13 21 -2 0 -10 -8 -17
-17z"/>
<path d="M1740 1005 c0 -7 30 -13 34 -7 3 4 -4 9 -15 9 -10 1 -19 0 -19 -2z"/>
<path d="M3416 994 c-3 -8 -10 -12 -16 -9 -5 3 -10 2 -10 -4 0 -18 18 -21 24
-5 5 13 9 14 20 5 10 -9 16 -9 21 -1 4 6 3 10 -2 9 -20 -3 -27 2 -13 11 13 8
13 10 -1 10 -9 0 -20 -7 -23 -16z"/>
<path d="M1836 953 c-6 -14 -5 -15 5 -6 7 7 10 15 7 18 -3 3 -9 -2 -12 -12z"/>
<path d="M1910 930 c0 -6 7 -10 15 -10 8 0 15 2 15 4 0 2 -7 6 -15 10 -8 3
-15 1 -15 -4z"/>
<path d="M3153 885 c0 -8 4 -15 9 -15 4 0 8 7 8 15 0 8 -4 15 -8 15 -5 0 -9
-7 -9 -15z"/>
<path d="M3097 872 c-14 -15 -15 -19 -2 -19 8 0 12 4 9 8 -2 4 2 9 8 12 7 2
10 7 7 11 -3 3 -13 -2 -22 -12z"/>
<path d="M1988 863 c6 -2 10 -9 7 -13 -3 -5 0 -12 6 -16 8 -4 9 -3 5 4 -4 7
-1 12 6 12 9 0 9 3 -2 10 -8 5 -19 9 -25 9 -5 0 -4 -3 3 -6z"/>
<path d="M3050 861 c0 -5 5 -13 10 -16 6 -3 10 -2 10 4 0 5 -4 13 -10 16 -5 3
-10 2 -10 -4z"/>
<path d="M2677 779 c-9 -6 -15 -14 -12 -20 10 -15 22 -10 28 11 3 11 4 20 4
20 -1 0 -10 -5 -20 -11z"/>
<path d="M2839 773 c-13 -16 -12 -17 4 -4 16 13 21 21 13 21 -2 0 -10 -8 -17
-17z"/>
<path d="M2704 768 c-4 -7 -4 -10 1 -6 4 4 16 3 26 -3 11 -5 19 -7 19 -5 0 3
-9 10 -19 16 -15 7 -22 7 -27 -2z"/>
<path d="M2386 723 c-6 -14 -5 -15 5 -6 7 7 10 15 7 18 -3 3 -9 -2 -12 -12z"/>
<path d="M2460 731 c0 -6 4 -13 10 -16 6 -3 7 1 4 9 -7 18 -14 21 -14 7z"/>
<path d="M2586 718 c3 -5 10 -6 15 -3 13 9 11 12 -6 12 -8 0 -12 -4 -9 -9z"/>
<path d="M5090 20 c0 -5 5 -10 11 -10 5 0 7 5 4 10 -3 6 -8 10 -11 10 -2 0 -4
-4 -4 -10z"/>
</g>
</svg>
